<?xml version="1.0" encoding="utf-8"?>
<svg viewBox="0 0 272.59 131.708" width="272.59" height="131.708" xmlns="http://www.w3.org/2000/svg">
  <path d="M 130.929 110.368 C 130.929 121.568 121.848 130.649 110.647 130.649 L 21.407 130.649 C 10.205 130.649 1.125 121.568 1.125 110.368 L 1.125 21.128 C 1.125 9.926 10.205 0.846 21.407 0.846 L 110.647 0.846 C 121.848 0.846 130.929 9.926 130.929 21.128 L 130.929 110.368 Z" style="fill: rgb(240, 219, 79);"/>
  <path d="M 271.58 110.461 C 271.58 121.661 262.499 130.742 251.298 130.742 L 162.058 130.742 C 150.856 130.742 141.776 121.661 141.776 110.461 L 141.776 21.221 C 141.776 10.019 150.856 0.939 162.058 0.939 L 251.298 0.939 C 262.499 0.939 271.58 10.019 271.58 21.221 L 271.58 110.461 Z" fill="#0769AD" style=""/>
  <path d="M 271.513 110.711 L 271.201 57.959 L 242.285 29.044 L 239.537 33.177 L 239.627 33.267 L 238.802 33.556 L 213.741 8.496 L 213.171 9.372 L 213.264 9.465 L 212.363 10.454 L 210.271 17.2 L 210.271 24.351 L 197.984 12.064 L 197.413 12.939 L 197.476 13.004 L 195.53 15.654 L 193.707 20.411 L 192.4 33.49 L 178.57 19.66 L 178.357 19.439 L 178.353 19.444 L 178.349 19.439 L 178.304 19.508 L 173.932 25.26 L 171.397 38.398 L 187.35 67.408 L 181.736 73.021 L 245.301 130.729 L 251.709 130.713 C 261.843 130.474 271.39 122.858 271.513 110.711 Z" fill="#05568D" style=""/>
  <g transform="matrix(0.253521, 0, 0, 0.253521, 142.533386, -18.755426)" style="">
    <g>
      <path d="M223.188,120.076c-12.768,22.4-14.355,50-6.982,74.597c7.031,23.707,21.826,44.617,40.504,59.925    c0.391,0.329,0.805,0.647,1.208,0.977c1.745,1.392,3.528,2.76,5.358,4.078c0.855,0.586,1.709,1.184,2.576,1.758    c0.402,0.281,0.793,0.574,1.196,0.842c1.306,0.855,2.637,1.709,3.979,2.516c0.257,0.17,0.525,0.316,0.781,0.463    c1.087,0.66,2.186,1.295,3.284,1.93c0.5,0.256,1.001,0.523,1.501,0.793c0.854,0.451,1.722,0.928,2.601,1.379    c1.685,0.867,3.418,1.697,5.163,2.49c0.379,0.172,0.77,0.33,1.136,0.5c1.404,0.611,2.808,1.209,4.236,1.771    c0.573,0.23,1.184,0.463,1.77,0.684c1.294,0.488,2.612,0.951,3.931,1.402c0.562,0.195,1.123,0.391,1.685,0.574    c1.855,0.598,3.735,1.16,5.615,1.686c42.664,11.486,82.629-3.236,103.271-34.096c0,0-22.9,79.262-122.07,62.207    c-1.929-0.328-3.76-1.086-5.604-1.672c-0.586-0.195-1.159-0.391-1.745-0.586c-1.307-0.451-2.588-0.902-3.882-1.391    c-0.586-0.232-1.196-0.465-1.808-0.697c-1.416-0.561-2.807-1.158-4.211-1.77c-0.379-0.17-0.757-0.316-1.135-0.488    c-1.734-0.793-3.443-1.623-5.14-2.49c-1.208-0.609-2.026-1.049-2.845-1.502c-0.414-0.23-0.83-0.426-1.244-0.67    c-1.185-0.66-2.369-1.355-3.528-2.051c-0.183-0.111-0.378-0.221-0.562-0.342c-1.355-0.807-2.674-1.66-3.992-2.539    c-0.391-0.244-0.769-0.525-1.159-0.795c-0.817-0.549-1.647-1.098-2.454-1.672c-2.002-1.439-3.783-2.807-5.541-4.199    c-0.391-0.316-0.781-0.635-1.172-0.951c-1.734-1.441-3.467-2.906-5.127-4.42c-1.734-1.586-3.199-3.002-4.639-4.443    c-0.367-0.391-0.758-0.77-1.123-1.172c-1.49-1.514-2.93-3.051-4.322-4.639c-3.809-3.441-7.006-8.533-9.887-12.817    c-3.15-4.7-5.982-9.632-8.496-14.723c-14.979-30.347-16.016-68.762,3.186-97.449L223.188,120.076z" fill="#FFFFFF"/>
      <path d="M145.784,149.166c-23.389,46.936-12.879,104.065,16.394,145.508c1.05,1.502,2.124,2.99,3.235,4.48    c0.342,0.451,0.684,0.891,1.037,1.33c0.903,1.209,1.855,2.418,2.808,3.602c0.342,0.428,0.672,0.83,1.025,1.258    c1.27,1.563,2.563,3.1,3.894,4.613c1.453,1.637,2.722,3.053,4.041,4.432c0.403,0.428,0.806,0.842,1.221,1.281    c1.025,1.074,2.075,2.137,3.137,3.186c0.403,0.416,0.818,0.818,1.233,1.234c1.44,1.391,2.881,2.758,4.37,4.113    c1.807,1.623,3.198,2.832,4.602,4.027c0.488,0.416,0.989,0.818,1.477,1.234c1.111,0.928,2.222,1.818,3.345,2.709    c0.537,0.428,1.074,0.855,1.636,1.281c1.221,0.941,2.441,1.869,3.687,2.771c0.427,0.293,0.83,0.623,1.269,0.928    c1.282,0.916,2.588,1.807,3.906,2.686c0.488,0.342,0.977,0.695,1.478,1.025c1.807,1.197,3.638,2.369,5.481,3.492    c0.488,0.293,0.951,0.549,1.439,0.83c1.393,0.83,2.783,1.66,4.199,2.453c0.781,0.451,1.575,0.842,2.356,1.281    c1.159,0.611,2.331,1.246,3.528,1.855c0.439,0.221,0.879,0.439,1.306,0.646c1.501,0.758,3.015,1.479,4.554,2.197    c0.354,0.16,0.707,0.33,1.074,0.502c1.781,0.805,3.576,1.574,5.395,2.318c0.465,0.195,0.928,0.379,1.393,0.574    c1.66,0.672,3.32,1.307,5.004,1.916c2.637,0.965,4.541,1.611,6.434,2.209c0.488,0.16,0.977,0.307,1.477,0.465    c1.941,0.598,3.883,1.232,5.872,1.709c52.698,12.439,108.338,1.27,139.674-41.113c0,0-37.317,104.443-165.772,80.127    c-2.014-0.379-3.967-1.111-5.92-1.734c-0.465-0.133-0.928-0.293-1.393-0.426c-1.916-0.623-3.832-1.258-5.725-1.953    c-2.381-0.855-4.09-1.527-5.799-2.197c-0.439-0.184-0.879-0.367-1.318-0.551c-1.83-0.744-3.649-1.537-5.443-2.355    c-0.342-0.146-0.66-0.293-1.002-0.451c-1.563-0.732-3.125-1.477-4.663-2.246c-0.403-0.207-0.806-0.402-1.208-0.611    c-1.672-0.854-2.649-1.391-3.625-1.928c-0.757-0.402-1.538-0.793-2.283-1.221c-1.379-0.781-2.759-1.574-4.114-2.393    c-0.513-0.305-1.025-0.598-1.514-0.891c-1.855-1.123-3.687-2.295-5.493-3.492c-0.513-0.342-1.013-0.707-1.514-1.049    c-1.184-0.781-2.368-1.588-3.516-2.406c-0.806-0.572-1.221-0.902-1.672-1.232c-1.208-0.879-2.417-1.781-3.613-2.686    c-0.574-0.463-1.147-0.902-1.721-1.367c-1.074-0.854-2.148-1.721-3.21-2.611c-0.537-0.439-1.074-0.879-1.6-1.318    c-1.294-1.111-2.588-2.246-3.857-3.383c-0.244-0.219-0.488-0.426-0.744-0.646c-1.502-1.367-2.918-2.709-4.31-4.076    c-0.427-0.404-0.854-0.83-1.27-1.246c-1.05-1.049-2.075-2.1-3.101-3.174c-0.415-0.414-0.83-0.854-1.245-1.293    c-1.318-1.404-2.612-2.809-3.882-4.248c-1.525-1.734-2.795-3.248-4.053-4.785c-0.342-0.416-0.695-0.855-1.037-1.295    c-0.94-1.16-1.844-2.318-2.747-3.49c-0.366-0.502-0.744-0.99-1.123-1.49c-1.001-1.342-2.002-2.709-2.954-4.09    c-0.183-0.256-0.378-0.5-0.562-0.768c-1.196-1.734-2.282-3.369-3.345-5.006c-0.317-0.5-0.635-1.014-0.952-1.537    c-0.769-1.209-1.514-2.418-2.246-3.639c-0.378-0.635-0.744-1.27-1.11-1.904c-0.659-1.146-1.307-2.295-1.941-3.441    c-0.354-0.66-0.708-1.295-1.05-1.953c-0.195-0.367-0.415-0.732-0.586-1.1c-0.342-0.623-0.635-1.27-0.952-1.904    c-0.5-0.988-1.001-1.977-1.489-2.99c-20.288-42.102-23.596-93.654,2.954-133.29L145.784,149.166z" fill="#FFFFFF"/>
      <path d="M285.322,106.001c-15.662,29.382-0.757,65.441,23.267,84.362c4.199,3.296,8.74,6.177,13.501,8.557    c2.515,1.245,5.103,2.356,7.715,3.32c2.051,0.745,4.37,1.55,6.494,2.087c26.831,6.763,48.694,2.087,61.706-17.358    c-3.955,5.908-18.811,46.07-73.571,35.083c-1.208-0.244-2.368-0.684-3.54-1.063c-0.366-0.109-0.721-0.244-1.074-0.354    c-0.83-0.293-1.648-0.575-2.466-0.891c-19.824-7.545-36.792-23.45-45.081-43.738c-7.861-19.092-6.751-40.576,4.578-57.886    L285.322,106.001z" fill="#FFFFFF"/>
    </g>
  </g>
  <path d="M 121.766 99.467 C 120.813 93.528 116.94 88.542 105.47 83.889 C 101.485 82.057 97.043 80.746 95.718 77.727 C 95.248 75.969 95.186 74.98 95.484 73.915 C 96.337 70.463 100.458 69.387 103.725 70.377 C 105.828 71.082 107.82 72.703 109.021 75.289 C 114.639 71.651 114.626 71.676 118.549 69.176 C 117.113 66.949 116.346 65.922 115.405 64.969 C 112.028 61.195 107.425 59.253 100.062 59.401 C 98.788 59.562 97.501 59.735 96.226 59.896 C 92.551 60.824 89.049 62.754 86.995 65.341 C 80.833 72.332 82.59 84.569 90.088 89.606 C 97.476 95.149 108.328 96.412 109.713 101.596 C 111.063 107.944 105.049 109.998 99.072 109.268 C 94.667 108.353 92.217 106.113 89.569 102.042 C 84.694 104.863 84.694 104.863 79.682 107.746 C 80.87 110.345 82.12 111.52 84.112 113.772 C 93.541 123.337 117.138 122.867 121.37 108.389 C 121.543 107.894 122.681 104.578 121.766 99.467 Z M 73.012 60.168 L 60.837 60.168 C 60.837 70.686 60.787 81.129 60.787 91.647 C 60.787 98.342 61.133 104.479 60.044 106.36 C 58.263 110.06 53.647 109.602 51.544 108.884 C 49.403 107.832 48.314 106.335 47.052 104.219 C 46.705 103.613 46.446 103.142 46.359 103.105 C 43.056 105.123 39.764 107.151 36.46 109.169 C 38.106 112.547 40.531 115.48 43.637 117.385 C 48.277 120.169 54.513 121.023 61.035 119.526 C 65.279 118.288 68.941 115.727 70.86 111.829 C 73.631 106.718 73.038 100.532 73.012 93.689 C 73.074 82.528 73.012 71.366 73.012 60.168 Z" fill="#323330" style=""/>
  <g transform="matrix(1.137822, 0, 0, 1.137822, 155.280029, 21.29063)" style="">
    <g fill="#131b28">
      <path d="M26.576 74.06l-.738 2.616.738-2.615zm3.796 5.678l-.813-.005.813.005zm-.2 3.906l-4.872.018 4.872-.018zm1.02-3.9l-.814-.005.814.005zm-.582 3.568l.85-3.237-.85 3.237zm17.93-14.907l-1.58 7.433 1.58-7.433zm-4.065 0l-1.2 5.553 1.2-5.553z"/>
      <path d="M48.26 68.07h-3.38c-.188 0-.374.15-.414.334l-2.4 11.107c-.04.183-.226.333-.413.333H39.26c-2.368 0-2.094-1.637-1.6-3.88l.015-.068.287-1.53.124-.63 1.092-5.332c.038-.184-.085-.335-.273-.335h-3.47a.44.44 0 0 0-.412.334l-1.563 7.414c-.86 3.924-.632 7.666 4.04 7.783l.135.003h7.332c.188 0 .373-.15.413-.334l3.162-14.866c.04-.184-.083-.334-.27-.334zm13.487 11.813c.188 0 .3.15.273.334l-.328 1.605m-.328 1.606l.328-1.606-.328 1.606zm-.412.338l-6.23.03 6.23-.03z" style="fill: rgb(255, 255, 255);"/>
      <path d="M52.704 77.817c-.003-.176.197-.478.385-.478l-.422-.007c-.2 1.914.037.485.037.485zm2.326 5.978h-.065.065zm6.717-3.912c.188 0 .3.15.273.334l-.382 1.866M56.63 83.8h-.014.014zm-.83-.006h-.048.048zm-.253.001h-.08.08zm-.247 0h-.07.07zm.462-.001h-.205.205z"/>
      <path d="M56.617 83.8l-.816.003.816-.003zm4.337-.025l-4.325.026 4.325-.026zm.4-.347l.275-1.344-.275 1.345zm-5.896.367H55.3h.178zm-.495 0h-.24.24zm.257 0h-.2.2zM5.76 77.857l.525-2.328-.6 2.66-.07.334.146-.668zm6.286-9.825H8.333a.45.45 0 0 0-.417.333l-.704 3.1a.26.26 0 0 0 .266.333h3.742c.188 0 .374-.15.414-.333l.68-3.107c.04-.183-.08-.333-.27-.333zm-.808 5.168l-1.1 5.038 1.1-5.038zM.452 89.895l3.062.024c-.904 0-2.397-.017-3.063-.025z" style="fill: rgb(255, 255, 255);"/>
      <path d="M6.8 73.2l-.526 2.328L6.8 73.2zm4.17-.333H7.227a.45.45 0 0 0-.417.333l-1.05 4.656-.146.668-1 4.753a7.16 7.16 0 0 1-.18.657s-.7 2.08-1.874 2.057l-1.165-.022a.45.45 0 0 0-.42.326L.2 89.558a.26.26 0 0 0 .261.336l3.063.025c2.936 0 4.483-1.627 5.476-6.307l2.25-10.4c.04-.183-.082-.333-.27-.333zm53.162 10.738c-.188 0-.3-.15-.27-.334l2.815-13.186m1.367 13.185l1.14-5.628-1.14 5.628z" style="fill: rgb(255, 255, 255);"/>
      <path d="M63.903 83.438c-.023-.092-.01-.317.03-.5l1.336-6.26-1.408 6.593c-.04.184.082.334.27.334h.342c-.188 0-.548-.075-.57-.167zm3.92.092c-.102.04-.34.075-.528.075h.342a.44.44 0 0 0 .41-.335l.068-.334c-.037.184-.2.553-.3.594zm.79-3.074l.503-2.484-.503 2.484zm11.108-9.488l.155.64c.043.183-.076.332-.263.333"/>
      <path d="M68.112 82.936l.5-2.48-.5 2.48zM79.568 70.3l.153.656-.153-.656zm-10.452 7.672l.138-.664.537-2.515-.608 2.848-.067.33zm-2.393-8.104l-.117.55-1.336 6.26 1.408-6.593.045-.216z"/>
      <path d="M79.877 71.608l-.155-.64-.23-1c-.304-1.18-1.196-1.863-3.134-1.863l-8.92-.006a.44.44 0 0 0-.412.334l-.138.653-.2.987-2.744 12.853c-.04.184-.053.4-.03.5s.383.167.57.167h2.82c.188 0 .425-.034.528-.075s.254-.4.3-.594l1.07-5.294 1.145-5.364c.04-.183.225-.332.412-.333l8.873-.004c.187 0 .306-.15.263-.333zM91.3 65.815l-.683.003h-2.84a.73.73 0 0 0-.534.282l-6.28 9.2c-.106.155-.227.132-.27-.05l-.462-2.027a.45.45 0 0 0-.417-.333h-4.037c-.188 0-.3.147-.248.328l1.8 6.338c.052.18.055.477.01.66l-.8 3.067a.25.25 0 0 0 .257.331h4c.188 0 .38-.15.426-.33l.8-3.067a2.04 2.04 0 0 1 .29-.604L92.518 66.08c.113-.15.052-.272-.136-.27l-1.07.007zm-32.076 7.937c-.024.2-.212.35-.4.35h-5.12c-.177 0-.267-.12-.24-.27l.004-.027.023-.087c.5-1.3 1.485-2.153 3.356-2.153 2.107 0 2.518 1.03 2.375 2.187zm-1.502-5.908c-6.57 0-8.127 3.988-9 8.013-.874 4.103-.798 7.94 6 7.94H55.8l.83-.003 4.326-.026a.44.44 0 0 0 .407-.335l.657-3.212c.038-.184-.085-.334-.273-.334h-6.112c-2.43 0-3.153-.646-2.887-2.545h9.77c.16-.003.305-.1.362-.252.01-.027.02-.056.024-.085 1.45-5.47 1.034-9.157-5.18-9.157zM26.668 73.73l-.092.327c0 .001-.738 2.616-.738 2.616l-.738 2.614a.48.48 0 0 1-.434.328H20.76c-2.962 0-3.683-2.317-2.962-5.734.72-3.495 2.135-5.668 5.05-5.888 3.984-.3 4.78 2.502 3.82 5.736zm2.678 5.685s1.84-4.47 2.26-7.053c.57-3.457-1.16-8.47-7.845-8.47-6.647 0-9.533 4.786-10.634 10-1.1 5.24.342 9.836 6.95 9.8l10.086-.037a.47.47 0 0 0 .427-.332l.85-3.238a.25.25 0 0 0-.255-.332l-1.627-.01c-.16-.001-.25-.104-.232-.24.004-.025.01-.05.02-.076z" style="fill: rgb(255, 255, 255);"/>
    </g>
  </g>
</svg>