<?xml version="1.0" encoding="utf-8"?>
<svg viewBox="-55.67 40.838 143.155 56.634" width="143.155" height="56.634" xmlns="http://www.w3.org/2000/svg">
  <circle cx="-29.467" cy="68.824" r="4.504" fill="#61dafb" style=""/>
  <g stroke="#61dafb" stroke-width="1" fill="none" transform="matrix(2.197152, 0, 0, 2.197152, -29.467768, 68.824249)" style="">
    <ellipse rx="11" ry="4.2"/>
    <ellipse rx="11" ry="4.2" transform="rotate(60)"/>
    <ellipse rx="11" ry="4.2" transform="rotate(120)"/>
  </g>
  <g transform="matrix(0.183346, 0, 0, 0.183346, 3.441335, 40.839752)" style="">
    <path d="M 120.81 80.561 L 217.378 80.561 L 217.378 88.237 L 129.662 88.237 L 129.662 146.004 L 212.148 146.004 L 212.148 153.679 L 129.662 153.679 L 129.662 217.102 L 218.384 217.102 L 218.384 224.777 L 120.81 224.777 L 120.81 80.561 Z M 226.029 80.561 L 236.29 80.561 L 281.757 143.984 L 328.23 80.561 L 391.441 0 L 287.591 150.649 L 341.106 224.777 L 330.443 224.777 L 281.757 157.315 L 232.869 224.777 L 222.408 224.777 L 276.325 150.649 L 226.029 80.561 Z M 344.928 88.237 L 344.928 80.561 L 454.976 80.561 L 454.976 88.237 L 404.277 88.237 L 404.277 224.777 L 395.425 224.777 L 395.425 88.237 L 344.928 88.237 Z M 0 80.561 L 11.065 80.561 L 163.646 308.884 L 100.592 224.777 L 9.254 91.468 L 8.852 224.777 L 0 224.777 L 0 80.561 Z" fill="#00f7ff" fill-rule="nonzero" id="id_102" data-darkreader-inline-fill="" style="--darkreader-inline-fill:#00c6cc;"/>
  </g>
</svg>