<?xml version="1.0" encoding="utf-8"?>
<svg viewBox="192.69 148.931 44.739 20.907" width="44.739" height="20.907" xmlns="http://www.w3.org/2000/svg">
  <circle cx="204.3" cy="159.291" r="2.05" fill="#61dafb"/>
  <g stroke="#61dafb" stroke-width="1" fill="none" transform="matrix(1, 0, 0, 1, 204.386627, 159.290665)">
    <ellipse rx="11" ry="4.2"/>
    <ellipse rx="11" ry="4.2" transform="rotate(60)"/>
    <ellipse rx="11" ry="4.2" transform="rotate(120)"/>
  </g>
  <path d="M 230.29 163.519 C 231.092 163.436 231.7 162.745 231.672 161.915 C 231.644 161.087 230.953 160.424 230.124 160.424 L 230.069 160.424 C 229.212 160.451 228.549 161.17 228.577 162.026 C 228.604 162.441 228.77 162.8 229.019 163.049 C 228.079 164.901 226.642 166.255 224.487 167.388 C 223.022 168.162 221.502 168.438 219.982 168.245 C 218.738 168.079 217.771 167.526 217.163 166.614 C 216.278 165.26 216.196 163.795 216.942 162.33 C 217.467 161.28 218.296 160.506 218.821 160.119 C 218.71 159.761 218.545 159.152 218.462 158.71 C 214.455 161.612 214.869 165.536 216.085 167.388 C 216.997 168.77 218.849 169.627 220.894 169.627 C 221.447 169.627 221.999 169.571 222.552 169.434 C 226.09 168.742 228.77 166.642 230.29 163.519 Z M 235.154 160.092 C 233.054 157.632 229.959 156.278 226.421 156.278 L 225.979 156.278 C 225.73 155.78 225.205 155.449 224.625 155.449 L 224.569 155.449 C 223.713 155.476 223.05 156.195 223.077 157.052 C 223.105 157.881 223.796 158.544 224.625 158.544 L 224.681 158.544 C 225.288 158.517 225.813 158.129 226.035 157.605 L 226.532 157.605 C 228.633 157.605 230.622 158.212 232.419 159.401 C 233.8 160.313 234.795 161.501 235.348 162.938 C 235.817 164.099 235.79 165.232 235.292 166.2 C 234.518 167.665 233.219 168.466 231.507 168.466 C 230.401 168.466 229.351 168.134 228.798 167.886 C 228.494 168.162 227.941 168.604 227.555 168.88 C 228.743 169.434 229.959 169.737 231.119 169.737 C 233.772 169.737 235.735 168.272 236.48 166.808 C 237.282 165.204 237.227 162.441 235.154 160.092 Z M 221.115 163.989 C 221.142 164.818 221.834 165.481 222.662 165.481 L 222.718 165.481 C 223.574 165.453 224.238 164.735 224.21 163.878 C 224.182 163.049 223.492 162.385 222.662 162.385 L 222.607 162.385 C 222.552 162.385 222.469 162.385 222.414 162.414 C 221.281 160.534 220.811 158.489 220.977 156.278 C 221.087 154.619 221.64 153.183 222.607 151.994 C 223.409 150.971 224.957 150.474 226.007 150.446 C 228.936 150.391 230.18 154.039 230.263 155.504 C 230.622 155.587 231.229 155.78 231.644 155.918 C 231.313 151.442 228.549 149.12 225.896 149.12 C 223.409 149.12 221.115 150.916 220.203 153.569 C 218.931 157.107 219.761 160.506 221.308 163.187 C 221.171 163.381 221.087 163.684 221.115 163.989 Z" fill="#764ABC" style=""/>
</svg>