<?xml version="1.0" encoding="utf-8"?>
<svg viewBox="0 0 272.59 131.708" width="272.59" height="131.708" xmlns="http://www.w3.org/2000/svg">
  <clipPath id="b">
    <path d="M0 0h122.522v122.523H0z" transform="matrix(1, 0, 0, 1, 0, 0)" overflow="visible"/>
  </clipPath>
  <g clip-path="url(#b)" transform="matrix(1.004643, 0, 0, 1.004643, 0.982972, 3.860602)" style="">
    <path d="M313.19 48.227h-21.257v2.255c6.649 0 7.718 1.425 7.718 9.856V75.54c0 8.431-1.067 9.976-7.718 9.976-5.104-.713-8.55-3.444-13.3-8.67l-5.462-5.937c7.361-1.308 11.28-5.938 11.28-11.164 0-6.53-5.58-11.518-16.031-11.518h-20.9v2.255c6.649 0 7.718 1.425 7.718 9.856V75.54c0 8.431-1.068 9.976-7.718 9.976v2.256h23.631v-2.256c-6.648 0-7.718-1.545-7.718-9.976v-4.273h2.019l13.182 16.505h34.557c16.981 0 24.345-9.024 24.345-19.832-.002-10.807-7.364-19.713-24.346-19.713zm-49.756 19.355V51.79h4.868c5.343 0 7.719 3.681 7.719 7.956 0 4.157-2.376 7.837-7.719 7.837l-4.868-.001zm50.113 16.508h-.832c-4.274 0-4.868-1.067-4.868-6.53V51.79h5.7c12.35 0 14.604 9.024 14.604 16.031.001 7.243-2.255 16.269-14.604 16.269zM181.378 71.978l8.193-24.228c2.376-7.006 1.308-9.023-6.293-9.023v-2.376h22.325v2.376c-7.48 0-9.262 1.78-12.23 10.449L179.834 89.79h-1.543l-12.114-37.17-12.349 37.17h-1.545l-13.181-40.613c-2.85-8.669-4.75-10.449-11.638-10.449v-2.376h26.363v2.376c-7.008 0-8.908 1.662-6.413 9.023l7.956 24.228 11.993-35.627h2.258l11.757 35.626zM221.752 89.314c-13.062 0-23.75-9.618-23.75-21.376 0-11.638 10.688-21.257 23.75-21.257s23.75 9.619 23.75 21.257c0 11.758-10.687 21.376-23.75 21.376zm0-38.949c-10.924 0-14.726 9.854-14.726 17.574 0 7.839 3.802 17.576 14.726 17.576 11.045 0 14.845-9.737 14.845-17.576 0-7.72-3.8-17.574-14.845-17.574z" fill="#00749a"/>
    <path d="M366.864 85.396v2.375H339.67v-2.375c7.957 0 9.382-2.019 9.382-13.896V52.502c0-11.877-1.425-13.775-9.382-13.775V36.35h24.581c12.23 0 19.002 6.294 19.002 14.727 0 8.194-6.771 14.606-19.002 14.606h-6.77V71.5c.001 11.878 1.425 13.896 9.383 13.896zm-2.613-44.771h-6.77v20.664h6.77c6.65 0 9.737-4.631 9.737-10.212.001-5.7-3.086-10.452-9.737-10.452zM464.833 76.609l-.595 2.137c-1.067 3.919-2.376 5.344-10.807 5.344h-1.663c-6.174 0-7.243-1.425-7.243-9.855v-5.462c9.263 0 9.976.83 9.976 7.006h2.257V58.083h-2.257c0 6.175-.713 7.006-9.976 7.006V51.79h6.53c8.433 0 9.738 1.425 10.807 5.344l.596 2.256h1.898l-.83-11.162h-34.914v2.255c6.649 0 7.719 1.425 7.719 9.856V75.54c0 7.713-.907 9.656-6.15 9.934-4.983-.762-8.404-3.479-13.085-8.628l-5.463-5.937c7.363-1.308 11.282-5.938 11.282-11.164 0-6.53-5.581-11.518-16.031-11.518h-20.9v2.255c6.649 0 7.719 1.425 7.719 9.856V75.54c0 8.431-1.068 9.976-7.719 9.976v2.256h23.632v-2.256c-6.648 0-7.719-1.545-7.719-9.976v-4.273h2.02l13.181 16.505h48.806l.713-11.161-1.784-.002zm-62.937-9.027V51.79h4.868c5.344 0 7.72 3.681 7.72 7.956 0 4.157-2.376 7.837-7.72 7.837l-4.868-.001zM488.939 89.314c-4.75 0-8.907-2.493-10.688-4.038-.595.595-1.662 2.376-1.899 4.038h-2.257V72.927h2.375c.951 7.838 6.412 12.469 13.419 12.469 3.8 0 6.888-2.138 6.888-5.699 0-3.087-2.73-5.463-7.6-7.719l-6.77-3.206c-4.751-2.258-8.312-6.178-8.312-11.401 0-5.7 5.344-10.568 12.707-10.568 3.919 0 7.243 1.426 9.263 3.088.593-.476 1.188-1.782 1.544-3.208h2.256v14.014h-2.494c-.832-5.582-3.919-10.213-10.212-10.213-3.325 0-6.413 1.899-6.413 4.87 0 3.087 2.493 4.749 8.194 7.361l6.53 3.206c5.701 2.731 7.956 7.127 7.956 10.689 0 7.48-6.531 12.704-14.487 12.704zM525.514 89.314c-4.751 0-8.908-2.493-10.688-4.038-.594.595-1.662 2.376-1.898 4.038h-2.257V72.927h2.375c.95 7.838 6.411 12.469 13.419 12.469 3.8 0 6.888-2.138 6.888-5.699 0-3.087-2.731-5.463-7.601-7.719l-6.77-3.206c-4.75-2.258-8.312-6.178-8.312-11.401 0-5.7 5.344-10.568 12.707-10.568 3.919 0 7.242 1.426 9.263 3.088.593-.476 1.187-1.782 1.542-3.208h2.257v14.014h-2.493c-.832-5.582-3.919-10.213-10.212-10.213-3.325 0-6.414 1.899-6.414 4.87 0 3.087 2.494 4.749 8.195 7.361l6.53 3.206c5.7 2.731 7.955 7.127 7.955 10.689 0 7.48-6.531 12.704-14.486 12.704z" fill="#464342"/>
    <g fill="#00749a">
      <path d="M8.708 61.26c0 20.803 12.089 38.779 29.619 47.299L13.258 39.872a52.354 52.354 0 0 0-4.55 21.388zM96.74 58.608c0-6.495-2.333-10.993-4.334-14.494-2.664-4.329-5.16-7.995-5.16-12.324 0-4.831 3.663-9.328 8.824-9.328.233 0 .454.029.682.042-9.351-8.566-21.808-13.796-35.49-13.796-18.36 0-34.513 9.42-43.91 23.688 1.233.037 2.396.062 3.382.062 5.497 0 14.006-.667 14.006-.667 2.833-.167 3.167 3.994.338 4.329 0 0-2.848.335-6.016.501L48.2 93.546l11.502-34.493-8.189-22.433c-2.83-.166-5.511-.501-5.511-.501-2.832-.166-2.5-4.496.332-4.329 0 0 8.679.667 13.843.667 5.496 0 14.006-.667 14.006-.667 2.835-.167 3.168 3.994.337 4.329 0 0-2.853.335-6.015.501l18.992 56.494 5.241-17.517c2.273-7.269 4.002-12.49 4.002-16.989z"/>
      <path d="M62.184 65.857l-15.768 45.818a52.516 52.516 0 0 0 14.846 2.142c6.12 0 11.989-1.059 17.452-2.979a4.451 4.451 0 0 1-.374-.724L62.184 65.857zM107.376 36.046c.226 1.674.354 3.472.354 5.404 0 5.333-.996 11.328-3.996 18.824l-16.053 46.413c15.624-9.111 26.133-26.038 26.133-45.427a52.268 52.268 0 0 0-6.438-25.214z"/>
      <path d="M61.262 0C27.483 0 0 27.481 0 61.26c0 33.783 27.482 61.264 61.262 61.264 33.778 0 61.265-27.48 61.265-61.264C122.526 27.481 95.04 0 61.262 0zm0 119.715c-32.23 0-58.453-26.223-58.453-58.455 0-32.229 26.222-58.45 58.453-58.45 32.229 0 58.45 26.221 58.45 58.45 0 32.232-26.222 58.455-58.45 58.455z"/>
    </g>
  </g>
  <path d="M 146.871 31.87 L 259.067 31.87 C 266.167 31.87 271.916 37.617 271.916 44.718 L 271.916 87.545 C 271.916 94.645 266.168 100.394 259.067 100.394 L 218.833 100.394 L 224.355 113.918 L 200.068 100.394 L 146.928 100.394 C 139.828 100.394 134.08 94.646 134.08 87.545 L 134.08 44.718 C 134.023 37.675 139.771 31.87 146.871 31.87 Z" fill="#7f54b3" style=""/>
  <path d="M 140.927 43.581 C 141.712 42.516 142.889 41.956 144.457 41.843 C 147.315 41.619 148.939 42.964 149.332 45.877 C 151.069 57.588 152.974 67.506 154.991 75.631 L 167.262 52.265 C 168.383 50.137 169.783 49.016 171.464 48.904 C 173.93 48.736 175.442 50.305 176.059 53.61 C 177.46 61.063 179.252 67.393 181.382 72.772 C 182.839 58.541 185.303 48.287 188.778 41.956 C 189.619 40.386 190.851 39.603 192.476 39.491 C 193.765 39.379 194.942 39.77 196.005 40.61 C 197.07 41.451 197.631 42.516 197.743 43.805 C 197.799 44.813 197.631 45.653 197.183 46.494 C 194.998 50.529 193.204 57.308 191.748 66.721 C 190.347 75.854 189.843 82.97 190.179 88.069 C 190.291 89.47 190.067 90.702 189.507 91.767 C 188.834 93 187.825 93.672 186.538 93.784 C 185.08 93.896 183.567 93.224 182.11 91.711 C 176.899 86.388 172.753 78.432 169.728 67.842 C 166.086 75.013 163.396 80.392 161.66 83.979 C 158.355 90.309 155.552 93.56 153.199 93.728 C 151.687 93.839 150.398 92.551 149.277 89.862 C 146.42 82.522 143.337 68.346 140.032 47.335 C 139.808 45.877 140.144 44.59 140.929 43.58 L 140.927 43.581 Z M 261.341 52.377 C 259.323 48.847 256.353 46.718 252.376 45.877 C 251.31 45.653 250.302 45.541 249.35 45.541 C 243.971 45.541 239.6 48.342 236.183 53.945 C 233.269 58.709 231.811 63.976 231.811 69.746 C 231.811 74.06 232.708 77.758 234.502 80.84 C 236.518 84.37 239.488 86.5 243.466 87.34 C 244.531 87.564 245.54 87.677 246.493 87.677 C 251.926 87.677 256.298 84.874 259.659 79.272 C 262.572 74.453 264.029 69.187 264.029 63.416 C 264.086 59.044 263.133 55.404 261.341 52.377 Z M 254.28 67.898 C 253.496 71.596 252.095 74.342 250.022 76.191 C 248.397 77.647 246.884 78.264 245.483 77.983 C 244.139 77.703 243.018 76.526 242.177 74.342 C 241.505 72.604 241.168 70.867 241.168 69.243 C 241.168 67.842 241.282 66.441 241.561 65.153 C 242.066 62.855 243.018 60.615 244.531 58.485 C 246.379 55.739 248.341 54.618 250.358 55.011 C 251.703 55.29 252.823 56.467 253.664 58.653 C 254.336 60.389 254.673 62.127 254.673 63.752 C 254.673 65.209 254.56 66.609 254.28 67.898 Z M 226.264 52.377 C 224.247 48.847 221.222 46.718 217.3 45.877 C 216.235 45.653 215.226 45.541 214.274 45.541 C 208.895 45.541 204.525 48.342 201.107 53.945 C 198.193 58.709 196.736 63.976 196.736 69.746 C 196.736 74.06 197.633 77.758 199.426 80.84 C 201.443 84.37 204.413 86.5 208.391 87.34 C 209.455 87.564 210.465 87.677 211.416 87.677 C 216.851 87.677 221.222 84.874 224.584 79.272 C 227.497 74.453 228.954 69.187 228.954 63.416 C 228.954 59.044 228.058 55.404 226.264 52.377 Z M 219.149 67.898 C 218.364 71.596 216.963 74.342 214.891 76.191 C 213.266 77.647 211.753 78.264 210.351 77.983 C 209.008 77.703 207.887 76.526 207.046 74.342 C 206.373 72.604 206.037 70.867 206.037 69.243 C 206.037 67.842 206.149 66.441 206.43 65.153 C 206.934 62.855 207.887 60.615 209.399 58.485 C 211.248 55.739 213.21 54.618 215.226 55.011 C 216.571 55.29 217.692 56.467 218.533 58.653 C 219.205 60.389 219.541 62.127 219.541 63.752 C 219.596 65.209 219.429 66.609 219.149 67.898 Z" fill="#fff" style=""/>
</svg>